<?xml version="1.0" encoding="utf-8"?>
<!-- Generator: Adobe Illustrator 19.0.0, SVG Export Plug-In . SVG Version: 6.00 Build 0)  -->
<!DOCTYPE svg PUBLIC "-//W3C//DTD SVG 1.1//EN" "http://www.w3.org/Graphics/SVG/1.1/DTD/svg11.dtd">
<svg version="1.1" id="Layer_1" xmlns:sketch="http://www.bohemiancoding.com/sketch/ns"
	 xmlns="http://www.w3.org/2000/svg" xmlns:xlink="http://www.w3.org/1999/xlink" x="0px" y="0px" viewBox="-544 341 794 100"
	 style="enable-background:new -544 341 794 100;" xml:space="preserve">
<style type="text/css">
	.st0{fill:#FFFFFF;}
</style>
<g>
	<path id="Shape_1_" sketch:type="MSShapeGroup" class="st0" d="M-177.2,402c-4,0-6.6-1.2-9.3-5.4c-2.7-4.2-7.1-11.4-7.1-11.4
		l19.4-27.1h-16.9l-15.4,21.5V341h-14.1v74.3h14.1v-23.5c0,0,7.8,12.4,10.3,16.2c3.9,5.9,9,7.5,17.5,7.5h4.1V402H-177.2L-177.2,402z
		"/>
	<path id="Shape_4_" sketch:type="MSShapeGroup" class="st0" d="M-247.3,416c-6.7,0-11.7-2.3-15.9-6.4c-6-6-5.8-14.1-5.8-22.7
		c0-8.6-0.3-16.7,5.8-22.6c4.1-4.1,9.2-6.4,15.9-6.4c10.8,0,19.6,6,21.7,18.7h-14.3c-0.9-3.2-2.6-6.1-7.3-6.1
		c-2.6,0-4.5,1.1-5.5,2.4c-1.3,1.7-2.2,3.7-2.2,14.2s0.9,12.4,2.2,14.2c1.1,1.4,3,2.4,5.5,2.4c4.7,0,6.4-2.9,7.3-6.1h14.3
		C-227.6,410-236.5,416-247.3,416L-247.3,416z"/>
	<g>
		<path id="Shape_7_" sketch:type="MSShapeGroup" class="st0" d="M-282.3,352.5v-11.4h-14v11.4H-282.3z"/>
		<path id="Shape_8_" sketch:type="MSShapeGroup" class="st0" d="M-296.7,358.3h14.3v35c0,6.2,4,8.8,8.7,8.8h3.2v13.3h-4.6
			c-14.2-0.1-21.6-7.9-21.6-21.6V358.3L-296.7,358.3z"/>
	</g>
	<path id="Shape" sketch:type="MSShapeGroup" class="st0" d="M-303.1,402c-4,0-6.6-1.2-9.3-5.4c-2.6-4.2-7.1-11.4-7.1-11.4
		l19.4-27.1H-317l-15.4,21.5V341h-14.1v74.3h14.1v-23.5c0,0,7.8,12.4,10.3,16.2c3.9,5.9,9,7.5,17.5,7.5h4.1V402H-303.1L-303.1,402z"
		/>
	<path id="Shape_5_" sketch:type="MSShapeGroup" class="st0" d="M-367.5,419.6c0,7.6-5.2,8.8-8.6,8.8h-5.1V441h6.2
		c14-0.1,21.6-7.4,21.6-21.5l-0.1-42.3c0-6.6-3.1-11.8-7.5-15.2c-4-3-9-4.5-14.1-4.5c-6.7,0-11.7,2.3-15.9,6.4
		c-6,6-5.8,14.1-5.8,22.6c0,8.6-0.3,16.7,5.8,22.7c4.1,4.1,9.2,6.4,15.9,6.4c2.6,0,5-0.5,7.5-1.7V419.6L-367.5,419.6z M-374.9,403.4
		c-2.6,0-4.5-1.1-5.5-2.4c-1.3-1.7-2.2-3.7-2.2-14.2s0.9-12.4,2.2-14.2c1.1-1.4,3-2.4,5.5-2.4c4.6,0,6.4,2.8,7.3,6v21.3
		C-368.5,400.6-370.3,403.4-374.9,403.4L-374.9,403.4z"/>
	<path id="Shape_6_" sketch:type="MSShapeGroup" class="st0" d="M-402.3,383c0-5.9,0.3-12.9-5.8-18.8c-4.1-4.1-9-6.4-16-6.4
		c-7,0-11.8,2.3-16,6.4c-6,6-5.8,13.4-5.8,18.8v32.5h14.1V383c0-7.3,0.8-8.4,2.1-10.1c1.1-1.4,3.1-2.7,5.6-2.7
		c2.6,0,4.6,1.4,5.6,2.7c1.3,1.7,2.1,2.6,2.1,10.1v32.4h14.1V383L-402.3,383z"/>
	<path id="Shape_3_" sketch:type="MSShapeGroup" class="st0" d="M-457.3,409.5c-4.1,4.1-9,6.4-16,6.4c-7,0-11.8-2.3-16-6.4
		c-6-6-5.8-14.1-5.8-22.7c0-8.6-0.3-16.7,5.8-22.6c4.1-4.1,9-6.4,16-6.4c7,0,11.8,2.3,16,6.4c6,6,5.8,14.1,5.8,22.6
		S-451.3,403.5-457.3,409.5L-457.3,409.5z M-467.6,372.7c-1.1-1.4-3.1-2.5-5.6-2.5c-2.6,0-4.6,1.1-5.6,2.5
		c-1.3,1.7-2.1,3.6-2.1,14.1s0.8,12.4,2.1,14c1.1,1.4,3.1,2.6,5.6,2.6c2.6,0,4.6-1.2,5.6-2.6c1.3-1.7,2.1-3.5,2.1-14
		S-466.4,374.5-467.6,372.7L-467.6,372.7z"/>
	<path id="Shape_2_" sketch:type="MSShapeGroup" class="st0" d="M-522.3,415.9c-8.7,0-15.9-1.6-21.7-7.6l9-9c3,3,8.2,4.1,12.8,4.1
		c5.6,0,8.2-1.8,8.2-5.1c0-1.4-0.4-2.5-1.1-3.4c-0.7-0.7-1.9-1.3-3.8-1.5l-6.9-1c-5-0.7-8.9-2.4-11.5-5c-2.6-2.7-4-6.6-4-11.5
		c0-10.5,7.8-18.1,20.9-18.1c8.2,0,14.4,1.9,19.3,6.9l-8.8,8.8c-3.6-3.6-8.4-3.3-10.8-3.3c-4.9,0-6.9,2.8-6.9,5.3
		c0,0.7,0.3,1.8,1.1,2.6c0.7,0.7,1.9,1.4,4,1.7l6.9,1c5.1,0.7,8.8,2.3,11.3,4.8c3.1,3,4.2,7.2,4.2,12.5
		C-500.2,409.5-510.2,415.9-522.3,415.9L-522.3,415.9z"/>
</g>
<g>
	<path class="st0" d="M-116.7,409.9c-3.7,3.7-8.8,5.8-14.1,5.8c-5.3,0-10.4-2.1-14.1-5.8c-5.2-5.2-5.2-10.2-5.2-23
		c0-12.8,0.1-17.8,5.2-23c3.7-3.7,8.8-5.8,14.1-5.8c5.3,0,10.4,2.1,14.1,5.8c5.2,5.2,5.2,10.2,5.2,23
		C-111.5,399.7-111.5,404.8-116.7,409.9z M-120.1,366.3c-2.9-2.9-6.7-4.4-10.7-4.4s-7.8,1.5-10.7,4.4c-4,4.1-4.4,8.4-4.4,20.6
		c0,12.2,0.3,16.6,4.4,20.6c2.9,2.9,6.7,4.4,10.7,4.4s7.8-1.5,10.7-4.4c4-4.1,4.4-8.4,4.4-20.6
		C-115.7,374.8-116.1,370.4-120.1,366.3z"/>
	<path class="st0" d="M-64.9,415.3l-13.5-26.1h-15.5v26.1h-4.3v-56.7h21.5c9.2,0,16.2,5.3,16.2,15.2c0,8.4-5.1,13.9-13,15.3
		l13.6,26.2H-64.9z M-77.3,362.4h-16.6v22.9h16.6c7.2,0,12.4-3.7,12.4-11.5S-70.1,362.4-77.3,362.4z"/>
	<path class="st0" d="M-16.2,409.2c-3.7,4.1-9.1,6.5-14.8,6.5c-5.3,0-10.4-2.1-14.1-5.8c-5.2-5.2-5.2-10.2-5.2-23
		c0-12.8,0.1-17.8,5.2-23c3.7-3.7,8.8-5.8,14.1-5.8c9.9,0,17.5,6.5,19.3,16.6H-16c-1.7-7.8-7.4-12.7-15-12.7c-4,0-7.8,1.5-10.7,4.4
		c-4,4.1-4.4,8.4-4.4,20.6c0,12.2,0.3,16.6,4.4,20.6c2.9,2.9,6.7,4.4,10.7,4.4c4.4,0,8.8-1.9,11.7-5.5c2.5-3,3.4-6.4,3.4-11.2v-5.1
		H-31v-3.8h19.4v9.2C-11.6,401.4-12.9,405.6-16.2,409.2z"/>
	<path class="st0" d="M36.8,415.7c-5.3,0-10.4-2.1-14.1-5.8c-5.2-5.2-5.2-10.2-5.2-23c0-12.8,0.1-17.8,5.2-23
		c3.7-3.7,8.8-5.8,14.1-5.8c10.1,0,17.4,6.3,19.2,16.6h-4.4c-1.7-7.8-7.2-12.7-14.8-12.7c-4,0-7.8,1.5-10.7,4.4
		c-4,4.1-4.4,8.4-4.4,20.6c0,12.2,0.3,16.6,4.4,20.6c2.9,2.9,6.7,4.4,10.7,4.4c7.6,0,13.3-4.9,15-12.7H56
		C54.2,409.4,46.7,415.7,36.8,415.7z"/>
	<path class="st0" d="M102.4,415.3v-26.7H73v26.7h-4.3v-56.7H73v26.2h29.4v-26.2h4.3v56.7H102.4z"/>
	<path class="st0" d="M155.4,415.3l-4.9-13.8h-26.3l-4.9,13.8h-4.6l20.8-56.7h3.8l20.8,56.7H155.4z M137.3,364.3l-11.8,33.3h23.6
		L137.3,364.3z"/>
	<path class="st0" d="M201.2,415.3l-13.5-26.1h-15.5v26.1h-4.3v-56.7h21.5c9.2,0,16.2,5.3,16.2,15.2c0,8.4-5.1,13.9-13,15.3
		l13.6,26.2H201.2z M188.8,362.4h-16.6v22.9h16.6c7.2,0,12.4-3.7,12.4-11.5S196,362.4,188.8,362.4z"/>
	<path class="st0" d="M232.7,362.4v52.8h-4.3v-52.8h-16.8v-3.8h38v3.8H232.7z"/>
</g>
</svg>
